<?xml version="1.0" encoding="UTF-8" standalone="no"?>
<!-- Uploaded to: SVG Repo, www.svgrepo.com, Transformed by: SVG Repo Mixer Tools -->

<svg
   width="941.61353"
   height="761.94513"
   viewBox="-2.4 -2.4 33.898087 27.430024"
   fill="none"
   stroke="#1c274c"
   version="1.1"
   id="svg7"
   sodipodi:docname="electrical_consumption_x3.svg"
   inkscape:version="1.3 (0e150ed6c4, 2023-07-21)"
   inkscape:export-filename="bolt-svgrepo-com_2.svg"
   inkscape:export-xdpi="96"
   inkscape:export-ydpi="96"
   xmlns:inkscape="http://www.inkscape.org/namespaces/inkscape"
   xmlns:sodipodi="http://sodipodi.sourceforge.net/DTD/sodipodi-0.dtd"
   xmlns="http://www.w3.org/2000/svg"
   xmlns:svg="http://www.w3.org/2000/svg">
  <defs
     id="defs11" />
  <sodipodi:namedview
     id="namedview9"
     pagecolor="#ffffff"
     bordercolor="#000000"
     borderopacity="0.25"
     inkscape:showpageshadow="2"
     inkscape:pageopacity="0.0"
     inkscape:pagecheckerboard="0"
     inkscape:deskcolor="#d1d1d1"
     showgrid="false"
     inkscape:zoom="0.295"
     inkscape:cx="401.69492"
     inkscape:cy="396.61017"
     inkscape:window-width="1920"
     inkscape:window-height="1128"
     inkscape:window-x="0"
     inkscape:window-y="0"
     inkscape:window-maximized="1"
     inkscape:current-layer="svg7" />
  <g
     id="g3"
     style="opacity:1">
    <g
       id="SVGRepo_iconCarrier"
       transform="translate(-5.1528805,1.7809461)">
      <path
         fill-rule="evenodd"
         clip-rule="evenodd"
         d="M 20.5279,10.3736 C 20.1572,9.73163 19.4779,9.5206 18.8294,9.42992 18.1757,9.33852 17.3008,9.33855 16.2426,9.33858 h -0.0602 c -0.6301,0 -1.0421,-0.00621 -1.3422,-0.04794 C 14.5688,9.2529 14.4825,9.19704 14.4456,9.16446 14.4187,9.13635 14.3706,9.07063 14.3379,8.83366 14.2993,8.55425 14.2976,8.1711 14.2976,7.55704 V 7.18255 C 14.2977,5.59503 14.2977,4.32329 14.1755,3.4166 14.0608,2.56554 13.7882,1.60969 12.844,1.32035 11.9164,1.03608 11.1384,1.64564 10.5337,2.27405 9.88942,2.9435 9.12413,3.97895 8.16596,5.27538 l -3.137,4.24431 C 4.41863,10.3454 3.90984,11.0337 3.60669,11.6029 3.3028,12.1735 3.08164,12.8509 3.41872,13.5268 l 0.00117,0.0025 0.00355,0.0072 0.00404,0.008 0.00398,0.0077 0.00434,0.0081 0.00443,0.0082 0.00418,0.0075 0.00443,0.0078 0.00405,0.0069 0.00149,0.0024 c 0.3675,0.6365 1.04387,0.8593 1.69822,0.9592 0.67433,0.103 1.57411,0.1096 2.66535,0.1096 0.63661,0 1.04253,0.0014 1.34065,0.0394 0.26335,0.0336 0.34211,0.0854 0.37587,0.1152 0.02991,0.0313 0.08235,0.1042 0.11933,0.3498 0.04232,0.281 0.04896,0.6701 0.04895,1.2772 l -10e-6,0.3743 c -4e-5,1.5875 -8e-5,2.8593 0.12209,3.766 0.11467,0.8511 0.38727,1.8069 1.33147,2.0963 0.9276,0.2843 1.7056,-0.3253 2.3104,-0.9537 0.6442,-0.6695 1.4095,-1.7049 2.3677,-3.0014 l 3.0994,-4.1933 c 0.6308,-0.8534 1.1496,-1.5665 1.4555,-2.1599 0.2994,-0.5807 0.5083,-1.2621 0.1743,-1.9318 l -0.0012,-0.0024 -0.0035,-0.0073 -0.0041,-0.008 -0.004,-0.0077 -0.0043,-0.0082 -0.0045,-0.0082 -0.0042,-0.0075 -0.0044,-0.0078 -0.0041,-0.007 z M 11.6145,3.31416 C 11.0465,3.90435 10.3387,4.85927 9.335,6.21733 L 6.27286,10.3604 c -0.65769,0.8898 -1.09773,1.4886 -1.34224,1.9477 -0.11901,0.2234 -0.16369,0.3644 -0.17641,0.4497 -0.00786,0.0527 -0.00306,0.0765 0.00321,0.0918 0.02419,0.0356 0.12921,0.1447 0.62158,0.2199 0.5379,0.0821 1.31132,0.0924 2.43895,0.0924 h 0.04597 c 0.57714,-10e-5 1.08001,-10e-5 1.48438,0.0515 0.43318,0.0552 0.8635,0.1808 1.2197,0.5159 l 0.0059,0.0055 0.0057,0.0056 c 0.35,0.3435 0.4923,0.7695 0.5575,1.2025 0.0623,0.4139 0.0657,0.9229 0.0657,1.5006 l -10e-5,0.3095 c 0,1.667 0.0017,2.8364 0.1087,3.6305 0.0533,0.3954 0.1249,0.6273 0.1936,0.7569 0.0514,0.097 0.081,0.1034 0.0893,0.1052 l 0.0015,3e-4 0.0015,5e-4 c 0.0105,0.0036 0.0473,0.0164 0.161,-0.0408 0.142,-0.0715 0.3449,-0.2256 0.6275,-0.5193 0.568,-0.5902 1.2758,-1.5451 2.2796,-2.9032 l 3.0621,-4.143 c 0.654,-0.8848 1.0897,-1.4923 1.3286,-1.9556 0.2047,-0.3972 0.1824,-0.5317 0.1688,-0.5674 -0.0225,-0.0328 -0.1233,-0.1345 -0.6032,-0.2016 -0.5371,-0.0751 -1.3056,-0.0769 -2.4393,-0.0769 -0.6028,0 -1.1257,-0.0034 -1.5488,-0.0623 -0.4368,-0.0607 -0.8681,-0.1922 -1.2213,-0.5243 L 13.4065,10.2465 13.4008,10.2409 C 13.0476,9.89419 12.9114,9.46874 12.852,9.03887 12.7975,8.64454 12.7976,8.15622 12.7976,7.60538 V 7.24733 c 0,-1.66689 -0.0017,-2.83634 -0.1087,-3.63041 C 12.6356,3.22153 12.564,2.98959 12.4954,2.86008 12.4439,2.76301 12.4143,2.75666 12.406,2.75487 l -0.0015,-3.6e-4 -0.0015,-5e-4 C 12.3925,2.7504 12.3557,2.73767 12.242,2.79487 12.1,2.86633 11.8972,3.02042 11.6145,3.31416 Z"
         fill="#1c274c"
         id="path4" />
    </g>
    <path
       style="fill:#ffdd55;stroke-width:0.122034"
       d="m 6.6797143,21.699853 c -0.042165,-0.210822 -0.076663,-1.362221 -0.076663,-2.558663 0,-2.59865 -0.1069084,-3.20353 -0.6857179,-3.879738 -0.6092339,-0.711753 -1.235594,-0.869872 -3.4550755,-0.872205 -0.977818,-10e-4 -1.84815898,-0.04648 -1.93409168,-0.101013 -0.1153649,-0.07321 0.04581,-0.384003 0.61606108,-1.187962 1.1652221,-1.642769 4.6932419,-6.3766478 5.2596644,-7.0573913 0.4811875,-0.578305 0.5013277,-0.5888858 0.580721,-0.3050845 0.045235,0.1616983 0.08772,1.3686063 0.09441,2.6820177 0.013578,2.6654841 0.1447445,3.3883371 0.7109906,3.9182311 0.7345372,0.687381 1.0319819,0.761054 3.2672757,0.809261 1.141017,0.02461 2.117369,0.08549 2.169671,0.135302 0.0523,0.04981 -0.251663,0.580447 -0.675478,1.179195 -1.270837,1.79539 -5.4049946,7.30075 -5.6071155,7.466863 -0.1607029,0.132075 -0.1991171,0.09886 -0.2646522,-0.228813 z"
       id="path255" />
  </g>
  <g
     id="g1"
     style="opacity:1">
    <g
       id="SVGRepo_iconCarrier-3"
       transform="translate(2.475243,-0.4017355)">
      <path
         fill-rule="evenodd"
         clip-rule="evenodd"
         d="M 20.5279,10.3736 C 20.1572,9.73163 19.4779,9.5206 18.8294,9.42992 18.1757,9.33852 17.3008,9.33855 16.2426,9.33858 h -0.0602 c -0.6301,0 -1.0421,-0.00621 -1.3422,-0.04794 C 14.5688,9.2529 14.4825,9.19704 14.4456,9.16446 14.4187,9.13635 14.3706,9.07063 14.3379,8.83366 14.2993,8.55425 14.2976,8.1711 14.2976,7.55704 V 7.18255 C 14.2977,5.59503 14.2977,4.32329 14.1755,3.4166 14.0608,2.56554 13.7882,1.60969 12.844,1.32035 11.9164,1.03608 11.1384,1.64564 10.5337,2.27405 9.88942,2.9435 9.12413,3.97895 8.16596,5.27538 l -3.137,4.24431 C 4.41863,10.3454 3.90984,11.0337 3.60669,11.6029 3.3028,12.1735 3.08164,12.8509 3.41872,13.5268 l 0.00117,0.0025 0.00355,0.0072 0.00404,0.008 0.00398,0.0077 0.00434,0.0081 0.00443,0.0082 0.00418,0.0075 0.00443,0.0078 0.00405,0.0069 0.00149,0.0024 c 0.3675,0.6365 1.04387,0.8593 1.69822,0.9592 0.67433,0.103 1.57411,0.1096 2.66535,0.1096 0.63661,0 1.04253,0.0014 1.34065,0.0394 0.26335,0.0336 0.34211,0.0854 0.37587,0.1152 0.02991,0.0313 0.08235,0.1042 0.11933,0.3498 0.04232,0.281 0.04896,0.6701 0.04895,1.2772 l -10e-6,0.3743 c -4e-5,1.5875 -8e-5,2.8593 0.12209,3.766 0.11467,0.8511 0.38727,1.8069 1.33147,2.0963 0.9276,0.2843 1.7056,-0.3253 2.3104,-0.9537 0.6442,-0.6695 1.4095,-1.7049 2.3677,-3.0014 l 3.0994,-4.1933 c 0.6308,-0.8534 1.1496,-1.5665 1.4555,-2.1599 0.2994,-0.5807 0.5083,-1.2621 0.1743,-1.9318 l -0.0012,-0.0024 -0.0035,-0.0073 -0.0041,-0.008 -0.004,-0.0077 -0.0043,-0.0082 -0.0045,-0.0082 -0.0042,-0.0075 -0.0044,-0.0078 -0.0041,-0.007 z M 11.6145,3.31416 C 11.0465,3.90435 10.3387,4.85927 9.335,6.21733 L 6.27286,10.3604 c -0.65769,0.8898 -1.09773,1.4886 -1.34224,1.9477 -0.11901,0.2234 -0.16369,0.3644 -0.17641,0.4497 -0.00786,0.0527 -0.00306,0.0765 0.00321,0.0918 0.02419,0.0356 0.12921,0.1447 0.62158,0.2199 0.5379,0.0821 1.31132,0.0924 2.43895,0.0924 h 0.04597 c 0.57714,-10e-5 1.08001,-10e-5 1.48438,0.0515 0.43318,0.0552 0.8635,0.1808 1.2197,0.5159 l 0.0059,0.0055 0.0057,0.0056 c 0.35,0.3435 0.4923,0.7695 0.5575,1.2025 0.0623,0.4139 0.0657,0.9229 0.0657,1.5006 l -10e-5,0.3095 c 0,1.667 0.0017,2.8364 0.1087,3.6305 0.0533,0.3954 0.1249,0.6273 0.1936,0.7569 0.0514,0.097 0.081,0.1034 0.0893,0.1052 l 0.0015,3e-4 0.0015,5e-4 c 0.0105,0.0036 0.0473,0.0164 0.161,-0.0408 0.142,-0.0715 0.3449,-0.2256 0.6275,-0.5193 0.568,-0.5902 1.2758,-1.5451 2.2796,-2.9032 l 3.0621,-4.143 c 0.654,-0.8848 1.0897,-1.4923 1.3286,-1.9556 0.2047,-0.3972 0.1824,-0.5317 0.1688,-0.5674 -0.0225,-0.0328 -0.1233,-0.1345 -0.6032,-0.2016 -0.5371,-0.0751 -1.3056,-0.0769 -2.4393,-0.0769 -0.6028,0 -1.1257,-0.0034 -1.5488,-0.0623 -0.4368,-0.0607 -0.8681,-0.1922 -1.2213,-0.5243 L 13.4065,10.2465 13.4008,10.2409 C 13.0476,9.89419 12.9114,9.46874 12.852,9.03887 12.7975,8.64454 12.7976,8.15622 12.7976,7.60538 V 7.24733 c 0,-1.66689 -0.0017,-2.83634 -0.1087,-3.63041 C 12.6356,3.22153 12.564,2.98959 12.4954,2.86008 12.4439,2.76301 12.4143,2.75666 12.406,2.75487 l -0.0015,-3.6e-4 -0.0015,-5e-4 C 12.3925,2.7504 12.3557,2.73767 12.242,2.79487 12.1,2.86633 11.8972,3.02042 11.6145,3.31416 Z"
         fill="#1c274c"
         id="path4-6" />
    </g>
    <path
       style="fill:#ffdd55;stroke-width:0.122034"
       d="m 14.307838,19.517171 c -0.04216,-0.210822 -0.07666,-1.362221 -0.07666,-2.558663 0,-2.59865 -0.106908,-3.20353 -0.685718,-3.879739 -0.609233,-0.711752 -1.235593,-0.869871 -3.455075,-0.872204 -0.9778176,-10e-4 -1.8481586,-0.04648 -1.9340916,-0.101013 -0.115365,-0.07321 0.04581,-0.384002 0.616061,-1.187961 1.165222,-1.6427695 4.6932416,-6.3766485 5.2596636,-7.0573915 0.481188,-0.578305 0.501328,-0.588886 0.580721,-0.305085 0.04524,0.161698 0.08772,1.368606 0.09441,2.682018 0.01358,2.665484 0.144745,3.388337 0.710991,3.9182315 0.734537,0.687381 1.031982,0.761053 3.267275,0.809261 1.141018,0.02461 2.117369,0.08549 2.169672,0.135302 0.0523,0.04981 -0.251664,0.580446 -0.675479,1.179194 -1.270836,1.79539 -5.404994,7.300749 -5.607115,7.466863 -0.160703,0.132075 -0.199117,0.09886 -0.264652,-0.228813 z"
       id="path255-7" />
  </g>
  <g
     id="g2">
    <g
       id="SVGRepo_iconCarrier-3-5"
       transform="translate(10.266604,-3.1513814)">
      <path
         fill-rule="evenodd"
         clip-rule="evenodd"
         d="M 20.5279,10.3736 C 20.1572,9.73163 19.4779,9.5206 18.8294,9.42992 18.1757,9.33852 17.3008,9.33855 16.2426,9.33858 h -0.0602 c -0.6301,0 -1.0421,-0.00621 -1.3422,-0.04794 C 14.5688,9.2529 14.4825,9.19704 14.4456,9.16446 14.4187,9.13635 14.3706,9.07063 14.3379,8.83366 14.2993,8.55425 14.2976,8.1711 14.2976,7.55704 V 7.18255 C 14.2977,5.59503 14.2977,4.32329 14.1755,3.4166 14.0608,2.56554 13.7882,1.60969 12.844,1.32035 11.9164,1.03608 11.1384,1.64564 10.5337,2.27405 9.88942,2.9435 9.12413,3.97895 8.16596,5.27538 l -3.137,4.24431 C 4.41863,10.3454 3.90984,11.0337 3.60669,11.6029 3.3028,12.1735 3.08164,12.8509 3.41872,13.5268 l 0.00117,0.0025 0.00355,0.0072 0.00404,0.008 0.00398,0.0077 0.00434,0.0081 0.00443,0.0082 0.00418,0.0075 0.00443,0.0078 0.00405,0.0069 0.00149,0.0024 c 0.3675,0.6365 1.04387,0.8593 1.69822,0.9592 0.67433,0.103 1.57411,0.1096 2.66535,0.1096 0.63661,0 1.04253,0.0014 1.34065,0.0394 0.26335,0.0336 0.34211,0.0854 0.37587,0.1152 0.02991,0.0313 0.08235,0.1042 0.11933,0.3498 0.04232,0.281 0.04896,0.6701 0.04895,1.2772 l -10e-6,0.3743 c -4e-5,1.5875 -8e-5,2.8593 0.12209,3.766 0.11467,0.8511 0.38727,1.8069 1.33147,2.0963 0.9276,0.2843 1.7056,-0.3253 2.3104,-0.9537 0.6442,-0.6695 1.4095,-1.7049 2.3677,-3.0014 l 3.0994,-4.1933 c 0.6308,-0.8534 1.1496,-1.5665 1.4555,-2.1599 0.2994,-0.5807 0.5083,-1.2621 0.1743,-1.9318 l -0.0012,-0.0024 -0.0035,-0.0073 -0.0041,-0.008 -0.004,-0.0077 -0.0043,-0.0082 -0.0045,-0.0082 -0.0042,-0.0075 -0.0044,-0.0078 -0.0041,-0.007 z M 11.6145,3.31416 C 11.0465,3.90435 10.3387,4.85927 9.335,6.21733 L 6.27286,10.3604 c -0.65769,0.8898 -1.09773,1.4886 -1.34224,1.9477 -0.11901,0.2234 -0.16369,0.3644 -0.17641,0.4497 -0.00786,0.0527 -0.00306,0.0765 0.00321,0.0918 0.02419,0.0356 0.12921,0.1447 0.62158,0.2199 0.5379,0.0821 1.31132,0.0924 2.43895,0.0924 h 0.04597 c 0.57714,-10e-5 1.08001,-10e-5 1.48438,0.0515 0.43318,0.0552 0.8635,0.1808 1.2197,0.5159 l 0.0059,0.0055 0.0057,0.0056 c 0.35,0.3435 0.4923,0.7695 0.5575,1.2025 0.0623,0.4139 0.0657,0.9229 0.0657,1.5006 l -10e-5,0.3095 c 0,1.667 0.0017,2.8364 0.1087,3.6305 0.0533,0.3954 0.1249,0.6273 0.1936,0.7569 0.0514,0.097 0.081,0.1034 0.0893,0.1052 l 0.0015,3e-4 0.0015,5e-4 c 0.0105,0.0036 0.0473,0.0164 0.161,-0.0408 0.142,-0.0715 0.3449,-0.2256 0.6275,-0.5193 0.568,-0.5902 1.2758,-1.5451 2.2796,-2.9032 l 3.0621,-4.143 c 0.654,-0.8848 1.0897,-1.4923 1.3286,-1.9556 0.2047,-0.3972 0.1824,-0.5317 0.1688,-0.5674 -0.0225,-0.0328 -0.1233,-0.1345 -0.6032,-0.2016 -0.5371,-0.0751 -1.3056,-0.0769 -2.4393,-0.0769 -0.6028,0 -1.1257,-0.0034 -1.5488,-0.0623 -0.4368,-0.0607 -0.8681,-0.1922 -1.2213,-0.5243 L 13.4065,10.2465 13.4008,10.2409 C 13.0476,9.89419 12.9114,9.46874 12.852,9.03887 12.7975,8.64454 12.7976,8.15622 12.7976,7.60538 V 7.24733 c 0,-1.66689 -0.0017,-2.83634 -0.1087,-3.63041 C 12.6356,3.22153 12.564,2.98959 12.4954,2.86008 12.4439,2.76301 12.4143,2.75666 12.406,2.75487 l -0.0015,-3.6e-4 -0.0015,-5e-4 C 12.3925,2.7504 12.3557,2.73767 12.242,2.79487 12.1,2.86633 11.8972,3.02042 11.6145,3.31416 Z"
         fill="#1c274c"
         id="path4-6-3" />
    </g>
    <path
       style="fill:#ffdd55;stroke-width:0.122034"
       d="m 22.099199,16.767525 c -0.04216,-0.210822 -0.07666,-1.362221 -0.07666,-2.558663 0,-2.59865 -0.106909,-3.20353 -0.685719,-3.879739 -0.609233,-0.7117521 -1.235593,-0.8698711 -3.455075,-0.8722041 -0.977817,-10e-4 -1.848158,-0.04648 -1.934091,-0.101013 -0.115365,-0.07321 0.04581,-0.384002 0.616061,-1.187961 1.165222,-1.6427693 4.693241,-6.3766483 5.259664,-7.0573913 0.481187,-0.578305 0.501328,-0.588886 0.58072,-0.305085 0.04524,0.161698 0.08772,1.368606 0.09441,2.682018 0.01358,2.665484 0.144745,3.388337 0.710991,3.918231 0.734536,0.6873813 1.031982,0.7610533 3.267274,0.8092613 1.141019,0.02461 2.11737,0.08549 2.169672,0.135302 0.0523,0.04981 -0.251664,0.580446 -0.675478,1.179194 -1.270837,1.7953901 -5.404994,7.3007491 -5.607115,7.4668631 -0.160703,0.132075 -0.199117,0.09886 -0.264652,-0.228813 z"
       id="path255-7-5" />
  </g>
</svg>
