<?xml version="1.0" encoding="UTF-8" standalone="no"?>
<svg
   height="167.03322mm"
   viewBox="260 34 1065.4004 485.60946"
   version="1.1"
   id="svg5"
   xml:space="preserve"
   sodipodi:docname="logo.svg"
   inkscape:version="1.2.1 (9c6d41e410, 2022-07-14)"
   width="281.88718mm"
   inkscape:export-filename="logo_ual.svg"
   inkscape:export-xdpi="96"
   inkscape:export-ydpi="96"
   xmlns:inkscape="http://www.inkscape.org/namespaces/inkscape"
   xmlns:sodipodi="http://sodipodi.sourceforge.net/DTD/sodipodi-0.dtd"
   xmlns="http://www.w3.org/2000/svg"
   xmlns:svg="http://www.w3.org/2000/svg"><sodipodi:namedview
   id="namedview314"
   pagecolor="#ffffff"
   bordercolor="#000000"
   borderopacity="0.25"
   inkscape:showpageshadow="2"
   inkscape:pageopacity="0.0"
   inkscape:pagecheckerboard="0"
   inkscape:deskcolor="#d1d1d1"
   inkscape:document-units="mm"
   showgrid="false"
   inkscape:zoom="6.572807"
   inkscape:cx="42.067263"
   inkscape:cy="17.952756"
   inkscape:window-width="1920"
   inkscape:window-height="1106"
   inkscape:window-x="-11"
   inkscape:window-y="-11"
   inkscape:window-maximized="1"
   inkscape:current-layer="svg5" />
                        <defs
   id="defs2" />
                        
                        
                        
                        
                        
                        
                        
                        
                        
                        
                        
                        
                        
                        
                        
                        
                        
                        
                        
                        
                        
                        
                        
                        
                        
                        
                        
                        
                        
                        
                        
                        
                        
                        
                        
                        
                    <g
   id="g10"
   transform="matrix(0.13040643,0,0,-0.0997392,271.05909,575.79529)"><g
     id="g142631"
     transform="matrix(0.7,0,0,0.7,1198.58,710.21844)"><path
       d="m 4337.07,2145.61 c -0.26,-15.51 0.95,-28.65 3.16,-33.44 20.29,-45.43 98.95,-39.3 150.88,-23.26 14.42,4.46 81.62,49.55 86.61,58.71 7.71,15.3 18.13,107.05 27.94,128.62 6.41,15.41 18.18,29.19 30.73,41.94 18.59,19.34 42.3,37.11 58.68,58.72 11.7,15.37 40.32,110.51 67.05,173.35 15.67,38.81 216.14,334.06 220.72,354.09 8.02,41.32 -0.29,80.53 -42.8,98.87 -11.33,3.11 -66.28,4.55 -76.44,0 -34.02,-16.12 -51.81,-51.61 -71.59,-99.09 -12.74,-90.15 -259.46,-443.94 -386.24,-614.39 -91.12,-120.89 -69.29,-88.95 -68.7,-144.12 v 0 m 988.34,857.91 c 9.8,-22.59 22.86,-47.38 33.75,-79.98 31.21,-63.7 109.72,-121.27 154.57,-198.42 3.89,-5.85 9.25,-8.92 11.14,-9.9 46.02,-25.54 111.81,-8.51 128.52,43.73 3.32,13.59 4.42,52.27 0,61.62 -5.56,11.15 -72.19,57.93 -97.79,87.57 -20.22,22.72 -88.81,165.77 -106.17,184.54 -22.07,21.66 -67.59,43.22 -101.2,31.37 -45.16,-28.94 -41.94,-74.79 -22.82,-120.53 v 0 m 105.12,335 c 0,0 -24.65,-24.55 -27.93,-36.91 -3.35,-8.23 0,-13.43 0,-13.43 -0.4,-0.72 -2.14,-20.39 0,-35.45 1.08,-9.66 29.94,-41.94 44.7,-51.22 64.4,-42.78 193.14,-136.85 217.93,-145.39 22.55,-8.36 44.29,-9.83 67.05,-16.78 32.44,-10.82 119.02,-64.01 186.79,-96.75 95.71,-47.24 200.75,-62 268.62,-112.95 94.91,-71.9 190.01,-247.23 298.96,-181.75 29.74,16.64 32.71,31.59 29.5,66.21 -2.72,14.05 -2.78,17.94 -13.7,28.36 -79.28,74.47 -207.98,202.17 -239.32,221.38 -29.36,17.33 -108.07,45.06 -170.43,67.11 -54.24,18.28 -343.14,167.94 -413.22,212.59 -99.72,63.16 -157.52,128.78 -224.9,104.46 -10.94,-4.31 -24.05,-9.48 -24.05,-9.48 -0.22,-0.75 0,0 0,0 v 0 m -1772.02,-74.27 c -11.37,-43.69 13.45,-86.9 33.52,-98.87 8.56,-6.65 20.01,-9.74 32.41,-11.18 17.59,-2.86 268.04,74.83 308.35,78.29 28.84,1.7 54.9,-2.48 80.35,0 28.4,1.7 113.01,37.48 158.02,44.73 101.2,16.16 310.38,-40.07 348.47,31.65 4.27,8.19 4.36,43.97 0,54.13 -16.44,35.44 -84.01,67.37 -128.41,76.39 -22.68,3.44 -159.92,-2.37 -219.94,-11.18 -38.01,-6.1 -110.52,-20.58 -183.03,-36.86 -109.48,-37.31 -162.63,-35.18 -226.85,-65.1 -17.28,-7.72 -31.44,-13.86 -42.63,-15.48 -22,-4.07 -42.83,1.41 -68.62,0 -37.72,-2.59 -81.43,-7.26 -91.64,-46.52 -11.18,-40.41 0,0 0,0 v 0 M 6567.7,3958.7 c -94.27,-38.6 -261.08,-108.82 -284.67,-111.09 -44.82,-5.27 -93.91,4.93 -121.25,0 -25.66,-5.27 -51.91,-16.04 -76.03,-28.59 -38.41,-21.07 -68.66,-41.8 -108.26,-58.08 -26.33,-10.34 -309.05,-44.97 -463.93,-64.96 -15.17,-3.09 -17.56,-2.89 -25.95,-9.58 -61.73,-49.74 2.85,-165.53 40.95,-179.9 11.26,-4.49 34.65,-3.3 55.99,0 29.25,4.39 112.56,24.25 203.32,47.23 70.07,38.54 99.13,30.2 240.91,67.37 11.15,6.68 25.7,16.38 107.57,33.54 70.79,26.41 142.6,54.71 204.7,76.78 95.44,51.72 112.86,37.06 191.13,53.13 77.43,31.15 127.38,29.66 160.23,56.65 8.94,7.05 15.18,15.79 17.1,24.98 11.07,56.06 -27.58,89.2 -86.06,98.86 -9.4,0.1 -17.89,2.8 -26.83,1.68 -12.17,-1.58 -14.95,-2.31 -28.92,-8.02 -14.32,-6.87 0,0 0,0 v 0 m -1305.46,-32.68 c -7.95,-48.46 -0.64,-81.75 32.46,-93 27.6,-9.92 50.98,-1.74 62.53,6.2 25.74,17.91 196.13,195.8 237.49,248.85 70.86,90.15 118.3,171.46 182.14,249.66 75.16,92.03 269.84,265.62 228.57,361.78 -11.36,23.22 -68.27,40.4 -109.97,31.65 -15.32,-3.99 -24.46,-9.4 -35.32,-19.57 -18.47,-18.45 -98.71,-145.11 -148.07,-232.07 -30.21,-52.72 -143.85,-211.49 -170.43,-237.67 -89.13,-87.31 -250.29,-240.97 -259.85,-260.03 -11.27,-21.11 -17.16,-41.21 -19.55,-55.8 -3.56,-15.62 0,0 0,0 v 0 m -999.22,267.51 c 79.34,-85.27 406.66,-437.09 406.66,-437.09 8.97,-11.77 12.12,-12.73 18.44,-16.84 30.48,-21.56 81.94,-15.14 104.73,-6.62 42.65,14.66 56.17,47.76 44.71,96.07 -3.54,11.81 -7.84,20.91 -13.97,29.74 -14.73,19.06 -176.03,148.57 -284.99,234.88 -36.03,26.84 -382.92,406.32 -572.54,611.2 -10.96,10.46 -12.33,12.89 -20.77,18.08 -37.54,21.98 -110.93,12.2 -133.11,-19.75 -18.36,-24.86 -12.43,-68.07 -8.39,-80.19 1.86,-9.77 81.08,-87.63 149.36,-153.13 166.19,-161.46 151.16,-105.75 309.87,-276.35 v 0"
       style="fill:#f2ee04;fill-opacity:1;fill-rule:evenodd;stroke:none"
       id="path12"
       inkscape:export-filename=".\path12.svg"
       inkscape:export-xdpi="96"
       inkscape:export-ydpi="96" /><path
       d="m 5427.32,3456.75 c 2.24,22.36 3.54,41.53 2.56,49.86 -4,24.99 -40.85,103.5 -58.68,128.5 -62.21,85.89 -197.06,129.88 -279.76,125.71 -8.84,0.13 -16.17,1.54 -22.79,1.15 -34.88,-5.46 -52.52,-31.09 -88.51,-57.62 -95.82,-48.45 -150.53,0.44 -231.21,-177.02 -28.85,-63.79 -39.14,-137.81 -23.13,-211.08 12.04,-61.34 59.67,-121.01 118.02,-159.3 145.56,-73.68 290.45,-39.45 422.56,46.51 126.95,82.52 147.18,115.96 160.94,253.29 v 0"
       style="fill:#ed1c24;fill-opacity:1;fill-rule:evenodd;stroke:none"
       id="path14" /><path
       d="m 2378.73,1565.51 c -7.76,16.81 -15.37,31.96 -22.79,43.18 -10.71,14.15 -21.08,27 -30.15,41.24 -14.59,20.27 -38.3,117.32 -64.26,176.15 -24.32,54.23 -103.25,155.83 -139.55,175.71 -10.54,4.28 -86.58,9.81 -104.09,6.03 -30.74,-7.66 -284,-124.85 -354.27,-164.96 -30.11,-17.3 -82.21,-48.34 -149.59,-89.15 -146.85,-120.51 -158.81,-91.51 -260.59,-166.53 -32.75,-26.48 -72.74,-55.81 -153.47,-102.91 C 1012.05,1420.13 875.297,1359.95 780.348,1300.83 653.977,1192.26 619.547,1238.62 490.055,1117.38 381.715,1057.61 130.949,928.191 119.566,928.551 73.9492,928.891 45.0078,938.301 23.5664,895 -2.99219,843.059 -7.65234,698.719 12.3945,637.762 c 8.2852,-27 26.6836,-43.801 58.0821,-40.262 7.9101,-0.059 11.3476,2.082 23.6836,10.781 183.9808,129.731 509.3278,360.578 611.6758,427.669 99.066,80.85 145.543,40.44 195.398,105.3 47.196,61.37 127.716,93.1 162.616,122.04 22.19,19.23 47.01,38.89 68.92,56.71 5.06,3.95 23.32,16.29 49.18,32.65 124.56,49.72 154.63,95.41 214.07,131.37 6.67,4.17 14.25,8.62 21.47,12.97 96.17,75.54 148.82,89.58 220.83,132.59 5.55,3.62 12.91,7.71 19.3,11.52 97.22,77.92 216.92,130.24 247.56,143.7 19.82,8.2 42.18,16.55 49.01,16.11 28.52,-1.99 59.48,-29.72 81.03,-61.51 11.12,-17.42 26.29,-45.16 41.51,-77.94 68.74,-136.27 41.88,-125.33 84.3,-215.31 8.12,-27.5 14.51,-49.1 16.68,-63.52 0.31,-9.85 2.55,-19.72 3.44,-30.16 7.24,-80.31 16.69,-131.51 28.9,-174.15 43.43,-79.28 46.08,-135.43 83.65,-161.93 13.06,-10.56 29.21,-14.49 49.01,-16.28 75.02,4.24 76.77,23.18 149.64,-17.68 128.1,-63.899 126.89,4.281 108.91,64.54 -51.84,105.34 -1.57,50.61 -99.81,252.1 -12.7,27.84 -19.77,82.18 -44.48,130.26 -64.39,63.31 -56.18,101.76 -78.24,136.18 v 0 m -351.9,1319.15 c 23.6,75.25 51.16,90.8 111.77,115.75 -0.53,0 0.23,0.1 0.35,0.15 34.64,35.36 44.87,13.72 118.15,23.77 85.17,29.35 110.93,67.45 144.05,-22.03 3.26,-16.69 -3.46,-29.63 -19.48,-55.01 -5.37,-9.03 -17.15,-23.23 -31.33,-39.88 -80.58,-94.92 -62.17,-91.23 -186.66,-97.39 -37.44,-1.97 -72.11,-0.47 -92.14,8.65 -20.77,8.62 -54.45,34.9 -44.71,65.99 9.15,29.92 0,0 0,0 v 0 m 977.08,-345.46 c 3.47,-12.86 6.7,-23.21 9.19,-28.09 23.13,-47.82 130.22,-58.8 192.79,-36.35 28.61,9.24 48.22,30.54 50.28,55.36 7.92,109.25 -44.28,118.28 22.36,157.14 35.88,20.18 41.36,3.47 143.61,8.39 16.55,-0.05 31.76,3.81 46.37,8.38 33.81,9.32 77.69,31.76 106.07,36.36 81.63,12.92 111.65,-13.04 167.75,8.38 26.33,10.45 60.04,32.38 80.01,36.35 17.35,3.69 67.44,-6.4 101.03,-5.59 56.88,0.41 134.78,54.41 120.7,115.64 -6.11,25.33 -32.29,46.54 -52.08,52.12 -19.14,4.29 -177.19,0.61 -199.48,-5.6 -74.16,-21.19 -76.58,-37.82 -150.77,-36.34 -53.6,0.36 -136.89,7.68 -154.67,2.79 -26.17,-8.35 -53.41,-28.32 -82.81,-39.14 -33.63,-13.6 -107.95,-26.53 -140.64,4.66 -42.44,33.53 -18.74,266.41 -19.32,283.58 -3.87,84.35 -4.33,129.39 -4.33,129.39 -1.03,2.31 -0.17,4.94 -0.28,6.99 -8.15,85.58 -47.8,55.34 -57.92,208.26 -18.29,48.96 -36.44,94.83 -56.91,116.45 -29.44,30.17 -94.67,73.16 -106.17,89.48 -9.1,11.71 -14.52,27.17 -22.35,39.15 -8.94,11.03 -18.35,21.85 -30.74,30.75 -16.67,11.36 -167.14,63.31 -195.57,67.1 -90.4,10.84 -252.12,7.48 -316.73,-2.79 -35.57,-5.6 -337.03,-116.92 -387.35,-142.59 -74.36,-37.62 -144.52,-76.44 -217.93,-117.44 -23.63,-13.4 -69.16,-42.13 -122.92,-77.31 -229.2,-186.15 -193.52,-112.86 -278.52,-191.22 -3.94,-2.32 -4.95,-4.07 -6.48,-5.48 -68.49,-63.42 -123.26,-132.59 -189.99,-192.93 -60.5,-55.46 -128.87,-100.9 -195.57,-153.78 -48.4,-37.81 -390.028,-384.2 -583.274,-578.09 -11.125,-11.63 -12.465,-13.12 -18.071,-24.31 -15.25,-28.75 -11.644,-64.79 0.645,-82.63 25.539,-39.34 102.609,-79.22 140.254,-72.7 14.011,2.29 31.074,10.57 46.937,19.57 18.864,10.84 146.953,133.81 153.668,148.19 20.559,44.64 43.528,116.16 53.09,125.82 14.816,15 39.969,24.59 61.465,41.94 24.379,20.41 124.236,150.35 139.696,159.38 40.05,23.79 70.81,27.21 86.61,81.09 15.58,56.64 -1.81,75.26 47.5,109.04 22.83,15.66 133.7,53.68 150.87,67.11 16.97,13.66 89.11,120.67 108.97,137 17.49,14.26 38.67,23.75 58.67,36.35 25.41,14.91 92.52,83.17 139.7,128.62 4.08,3.18 20.88,15.47 45.3,31.32 53.48,34 76.8,19.65 191.12,118.94 87.26,52.68 172.27,102.91 193.85,112.57 35.46,15.56 116.7,45.26 187.83,69 186.47,76.77 146.42,47.36 267.38,48.7 7.88,-0.04 16.8,0.08 25.2,-0.05 55.18,-1.47 87.16,16.66 153.69,-6.79 52.41,-53.86 73.07,17.65 208.24,-119.08 107.55,-101.99 65.64,-146.26 96.28,-258.59 8.31,-35.75 15.02,-65.86 16.91,-80.69 4.72,-39.41 5,-113.1 0,-130.73 -13.03,-44.8 -39.25,-84.89 -13.97,-122.92 30.53,-47.66 68.38,-62.4 39.12,-106.25 -11.55,-16.87 -31.52,-25.77 -52.97,-27.96 -16.29,-2.22 -29.12,1.77 -43.03,0 -13.21,-2.22 -63.48,-33.63 -96.78,-53.13 -17.05,-9.76 -82.83,-27.99 -100.59,-27.96 -42.23,-1.04 -105.27,7.36 -121.14,2.8 -15.79,-5.32 -26.77,-12.17 -40.91,-19.57 -26.66,-13.86 -245.54,-92.09 -307.33,-50.33 -18.23,11.32 -22.39,25.11 -16.77,38.25 2.98,8.58 86.29,68.65 117.35,84.78 117.94,61.41 155.92,87.35 209.55,215.28 41.56,102.11 -1.28,170.58 -103.38,215.31 -45.93,18.49 -108.28,33.4 -150.76,47.53 -13.55,3.51 -48.56,4.36 -53.32,0 -3.14,-3.89 -7.49,-11.17 -13.02,-22.38 2.48,-76.2 -10.18,-72.92 -87.77,-63.58 -13.33,0.69 -23.68,2.38 -32.64,2.08 -14.71,-1.39 -21.86,-4.03 -31.29,-8.39 -146.19,-66.98 -303.03,-128.73 -379.98,-254.44 -8.87,-15.25 -12.98,-26.16 -16.77,-40.94 -5.42,-20.18 -4.8,-96.31 0,-107.25 9.38,-23.91 51.58,-56.76 83.82,-67.11 89.8,-29.3 196.22,2.28 217.93,-50.88 2.08,-8.02 -0.53,-16.86 -17.44,-30.26 -10.07,-8.83 -12.17,-8.46 -27.21,-9.61 -15.42,-2.18 -31,-2.36 -47.79,-3.62 -214.73,-3 -5.29,-39.56 -463.33,-36.96 -35.5,-4.51 -58.81,-6.43 -64.49,-8.47 -33.15,-12.31 -67.35,-28.83 -94.99,-33.55 -41.74,-8.35 -323.221,4.03 -337.174,-2.79 -21.211,-10.01 -37.598,-37.07 -31.629,-65.33 3.02,-17.18 44.617,-92.5 58.673,-108.03 18.33,-21.6 46.82,-35.74 86.58,-38.13 14.61,-1.23 18.46,-0.81 33.44,1.03 32.96,3.66 73.76,8.87 115.01,13.84 86.63,19.41 106.12,41.3 193.72,42.83 162.21,-8.62 112.1,47.2 203.85,39.01 175.87,-7.67 214.43,10.75 250.11,34.31 20.46,3.88 40.81,-0.16 61.65,-31.38 19.47,-31.33 7.98,-110.79 3.82,-178.38 -2.1,-15.71 0.21,-17.89 11.31,-28.12 78.33,-73.41 114.04,-123.17 162.79,-101.06 54.62,24.69 20.27,75.21 40.01,195.72 2.78,19.85 16.05,63.71 27.81,101.08 23.8,75.61 55.38,100.72 122.76,107.13 72.68,6.95 43.08,-14.12 103.88,6.43 51.66,34.55 73.71,32.99 119.35,40.9 65.48,33.61 117.46,37.91 157.38,41.63 54.59,-9.5 35.64,36.2 186.31,45.44 102.06,38.28 101,16.57 117.09,-79.65 v 0 m 943.4,-2069.231 14.71,240.523 c 0.48,14.199 1.48,18.36 5.54,32.906 31.92,117.422 32.86,158.313 127.34,160.352 18.53,-0.02 60.16,4.059 108.5,9.262 80.18,8.48 86.77,53.34 293.79,42.008 73.45,18.25 28.78,50.32 259.62,44.48 84.6,-2.551 212.16,62.28 290.03,104.6 10.6,9.74 23.37,19.85 36.59,28.56 39.12,25.57 96.9,44.68 134.1,69.9 48.55,32.61 119.65,108.42 128.53,162.06 8.8,59.95 -0.75,121.08 -50.3,153.9 -13.41,8.14 -26.79,14.4 -39.11,22.36 -18.69,10.94 -32.65,27.85 -50.3,41.94 -0.94,0.07 -0.45,0.36 -0.74,0.55 -19.44,12.84 -108.15,29.08 -183.67,66.86 -20.72,0.73 -39.37,1.23 -58.64,1.9 -164.8,-1.17 -58.58,58.15 -245.8,40.17 -99.51,1.57 -395.22,-5.45 -410.79,-11.61 -32.01,-13.45 -70.93,-49.99 -61.47,-96.75 7.27,-36.56 37.57,-47.73 68.08,-49.37 38.33,-3.47 98.73,0.84 127.07,7.51 44.43,9.74 106.77,30.7 123.36,29.56 24.65,-2.06 50.43,-13.71 77.11,-16.78 39.27,-6 67.03,10.44 104.49,16.78 5.8,0.89 57.3,-10.18 117.75,-25.17 133.68,-7.96 91.9,-31.86 204.92,-55.98 5.7,-2.3 11.8,-4.03 15.41,-5.53 64.27,-27.84 122.31,-80.25 86.61,-153.78 -25.3,-51.62 -129.05,-97.3 -199.06,-126.16 -147.32,-54.19 -138.88,-53.79 -290.64,-100.51 -32.76,-8.43 -61.93,-23.1 -94.13,-30.56 -33.33,-7.46 -219.7,-3.75 -251.68,-11.19 -37.63,-9.59 -70.74,-26.65 -106.06,-36.35 -33.67,-10.22 -119.02,-20.62 -145.28,0 -6.76,3.09 -12.06,10.85 -17.99,17.11 -49.44,89.56 43.46,127.28 26.04,289.16 8.86,83.01 50.92,123.37 50.81,200.77 17.24,67.2 28.74,5.09 11.05,115.3 -7.13,43.64 -15.67,94.14 -14.04,105.64 6.91,54.89 44.95,83.14 8.39,130.4 -42.91,54.7 -136.26,-12.06 -159.26,-61.79 -4.98,-10.76 -4.45,-52.28 0,-65.04 15.74,-49.29 41.18,-100.6 0,-138.79 -9.42,-8.16 -17.53,-11.3 -29.05,-13.98 -27.72,-7.5 -186.37,5.3 -265.43,0 -16.79,-1.58 -31.37,-3.35 -46.38,-8.38 -26.63,-9.48 -56.33,-26.61 -80.02,-30.77 -22.08,-3.86 -42.4,0.67 -64.15,0 -24.51,-0.9 -47.6,-7.27 -73.76,-13.97 -88.36,-22.45 -428.93,-137.8 -447.03,-150.99 -39.36,-28.3 -75.22,-55.69 -61.46,-107.26 1.38,-8.34 4.39,-12.58 8.37,-18.56 7.81,-14.93 85.02,-74.79 104.37,-83.88 8.5,-5.04 39.79,-4.3 45.61,0 16.16,11.24 46.61,63.09 76.33,92.27 12.33,12.19 53.43,35.93 78.24,44.73 13.99,4.45 31.31,10.6 49.61,16.3 247,124.28 88.63,-0.3 262.99,93.52 3.25,1.17 8.85,3.56 13.28,4.82 16.6,3.75 82.91,-5.05 136.23,0 15.01,0.78 87.6,23.32 153.92,44.35 13.5,3.78 27.8,8.75 39.29,12.16 15.64,3.46 41.49,28.74 60.07,26.81 47.31,-51.46 21.73,-143.8 21.18,-159.83 -1.98,-30.72 -2.5,-54.45 -4.56,-63.4 -12.22,-51.66 -37.75,-97.5 -39.11,-117.21 -1.22,-14.35 1.06,-27.68 0,-42.61 -5.67,-63.48 -38.04,-119.06 -72.65,-144.841 -58.79,-44.41 -57.08,-3.789 -164.28,13.981 -52.83,8.19 -112.48,-12.692 -103.93,-65.981 6.71,-42.719 57.33,-70.711 103.37,-79.41 94.21,-18.059 126.11,2.211 148.08,-68.898 3.84,-15.743 4.8,-85.059 0,-106.469 -10.95,-45.402 -29.82,-79.793 -39.11,-126.492 -8.84,-44.68 -11.72,-145.168 40.9,-156.688 36.09,-9.332 79.23,0.11 100.1,33.43 5.53,9.027 7.17,12.976 8.1,28.047 0.39,15.019 0,0 0,0 v 0 m 3556.83,296.57 c 3.26,-18.91 4.25,-50.84 6.33,-104.391 -7.15,-94.296 1.19,-146.769 10.13,-184.238 13.79,-63.949 37.66,24.809 37.62,-269.058 2.81,-33.11 7.33,-52.692 9.03,-57.602 18.93,-56.8906 67.95,-150.980469 67.95,-150.980469 -0.19,-0.609375 80.13,0 80.13,0 -0.42,-0.609375 5.62,174.378469 0,205.121469 -4.85,25.089 -32.89,71.73 -41.9,108.031 -8.82,29.519 -2.41,100.578 -11.19,150.988 -7.99,38.332 -22.93,71.16 -30.73,106.129 -20.17,87.563 11.35,221.563 91.19,240.582 21.8,5.309 156.4,-5.539 193.91,0 42.45,5.309 81.9,33.551 72.53,74.598 -6.41,25.41 -29.49,30.781 -76.48,39.691 -15.75,1.988 -18.18,3.141 -33.27,3.141 -0.23,-1.153 -30.13,0 -66.95,0 -177.43,-1.153 -142.45,46.578 -137.98,147.379 -5.42,122.25 -11.12,278.28 -11.28,282.21 -3.01,69.39 -46.26,106.16 -65.79,212.39 -28.96,62.67 -63.8,112.49 -118.54,129.72 -37.67,11.38 -62.41,-3 -76.44,-31.65 -5.62,-10.25 -4.34,-41.2 0,-50.44 10.65,-24.91 81.36,-101.37 92.2,-124.82 4.27,-12.54 7.87,-23.05 8.38,-35.78 0.33,-15.23 -1.14,-29.27 0,-42.61 0.33,-12.58 14.38,-37.27 25.79,-64.3 13.01,-32.62 21.87,-90.18 17.51,-148.84 -25.21,-79.09 -52.28,-58.97 -36.07,-232.22 -3.94,-36.27 -6.44,-57.738 -6.44,-57.738 -0.46,-0.723 -89.12,-26.973 -123.72,-36.422 -8.43,-2.77 -22,-16.86 -22.36,-23.27 -0.87,-1.699 -0.09,-1.621 -0.12,-2.48 -2.22,-43.61 7.22,-54.25 24.65,-56.629 85.58,2.66 106.2,25.539 121.91,-26.512 v 0 m -375.89,119.25 c -59.54,2.973 -130.15,6.512 -192.8,9.641 -232.63,-5.02 -350.14,-21.16 -280,130.09 13.34,29.13 35.57,67.94 56.85,98.75 21.6,32.48 214.33,229.14 237.49,243.26 26.77,15.61 53.26,27.62 81.02,47.53 65.61,46.5 100.71,98.83 164.85,125.82 53.16,21.3 75.19,20.57 83.81,54.92 13.74,55.16 -33.66,71.86 -82.03,59.72 -25.56,-7.52 -175.95,-86.66 -236.48,-125.82 -8.07,-5.99 -20.48,-14.59 -37.22,-27.7 -212.03,-209.12 -197.85,-157.9 -262.47,-221.6 -1.36,-0.84 -1.07,-1 -1.58,-1.48 -35.28,-71.86 -118.15,-175.21 -168.67,-256.55 -13.1,-16.54 -25.83,-30.421 -38.56,-49.081 -1.18,-1.5 -0.06,-0.098 -0.09,-0.141 -20.32,-99.007 -82.34,-200.359 -92.64,-229.949 -1.67,-3.711 -1.56,-4.488 -2.29,-6.64 -27.49,-78.457 30.47,-175.137 40.53,-259.477 7.45,-17.25 17.59,-30.031 26.55,-37.84 29.72,-26.762 152.46,-61.773 184.4,-33.551 55.44,48.219 -31.63,110.508 -55.88,172.348 -11.49,26.801 -14.79,114.723 2.8,149.199 12.34,25.563 37.29,40.801 64.15,44.731 34.01,4.511 103.1,-5.028 134.33,0 60.96,8.953 67.72,27.89 108.29,22.371 28.13,-4.551 64.33,-20.36 92.76,-22.371 19.71,-2.891 101.74,22.64 129.65,22.371 23.23,-1.59 67.07,-19.57 102.25,-22.371 33.44,-2.891 108.48,21.64 114.56,54.801 0.26,1.5 0.84,5.671 0.98,8.378 -2.2,61.184 -35.04,64.5 -174.56,50.641 v 0 M 5522.96,462.512 c 14.42,2.047 28.67,4.078 42.62,6.097 119.24,51.891 155.88,38.012 184.56,33.661 118.16,16.75 118.24,56.359 323.19,95.781 0.64,-0.61 2.27,0.961 3.38,1.429 112.68,79.34 196.68,152.02 143.76,319.54 -5.93,8.378 -10.45,17.55 -16.67,26.308 -14.41,17.582 -197.47,166.702 -226.31,181.742 -78.12,38.56 -180,83.36 -223.52,111.84 -54.35,34.73 -72.82,69.98 -22.35,100.66 13.87,8.06 162.52,43.71 178.82,41.94 30.36,-4.29 93.5,-25.42 108.96,-61.51 7.22,-19.72 9.37,-33.84 11.23,-46.57 10.79,-82.65 125.44,-2 190.51,16.69 3.76,4.24 8.2,8.72 10.6,13.1 25.71,45.89 -2.41,111.88 -41.91,142.6 -40.4,30.54 -99.87,54.79 -139.58,64.31 -13.27,1.74 -60.95,4.32 -112.05,4.43 -105.41,3.23 -154.89,-7.56 -201.7,-26.41 -48.72,-20.67 -144.65,-26.65 -236.12,-113.96 -65.62,-65.03 -47.53,-120.18 35.67,-177.22 14.12,-10.63 60.79,-30.45 116.07,-54.09 117.04,-26.08 254.02,-97.2 343.17,-183.458 23.93,-24.621 46.41,-50.934 63.22,-81.203 30.26,-57.36 -51.1,-135.918 -108.96,-178.938 -29.46,-21.941 -58.05,-37.601 -89.41,-53.133 -34.75,-17.636 -195.15,-67.718 -221.5,-69.898 -66.27,-5.441 -155.2,0.82 -186.52,-5.59 -38.07,-8.73 -69.16,-24.789 -106.06,-36.351 -13.4,-4.938 -127.65,-4.68 -223.46,-3.02 -99.18,4 -106.15,-6.207 -210.57,34.801 -23.26,6.191 -44.89,13.301 -74.42,20.379 -36.15,24.293 -51.75,63.75 -30.79,129.582 15.36,48.59 52.13,83.281 103.38,109.039 0.75,0.219 2.82,1.41 4.24,2.101 83.82,69.141 205.21,57.559 180.56,146.008 -6.49,20.793 -22.12,38.891 -46.89,44.821 -8.42,1.12 -16.14,1.19 -24.36,0 -19.57,-3.31 -159.2,-67.899 -186.19,-86.668 -28.7,-20.223 -254.32,-255.641 -262.64,-274.02 -23.52,-52.492 17.91,-98.523 67.06,-131.41 17.43,-12.82 169.13,-65.711 189.88,-67.113 61.35,-4.899 163.69,-4.528 220.87,-7.137 89.05,5.199 73.6,-24.801 150.95,-27.613 124.54,35.773 147.96,42.32 319.28,38.453 v 0 m 512.81,30.539 c 8.43,-19.59 23.85,-33.91 34.81,-39.832 7.83,-5.227 66.01,-4.539 76.45,0 39.39,16.972 57.28,74.863 17.66,134.211 -13.77,17.41 -36.32,18.152 -61.85,7.949 -42.19,-17.168 -91.12,-46.477 -67.07,-102.328 v 0 m -1980.52,11.621 c -5.98,-54.953 24.88,-85.16 82.03,-73.82 45.69,8.269 88.32,54.828 80.02,98.867 -10.66,51.453 -77.57,68.742 -122.94,38.152 -12.01,-8.902 -36.45,-38.723 -39.11,-63.199 -3.97,-25.602 0,0 0,0 v 0 m 3676.85,19.457 c -10.47,-60.609 32.01,-89.777 83.92,-82.09 49.82,5.953 91.72,62.563 58.57,111.84 -25.03,34.68 -69.57,36.762 -108.97,13.992 -9.27,-5.941 -30.44,-25.871 -33.52,-43.742 -3.87,-18.43 0,0 0,0 v 0"
       style="fill:#f9f9f9;fill-opacity:1;fill-rule:evenodd;stroke:none"
       id="path16" /><path
       d="m 3324.35,165.742 v 112.457 c -4.03,-1.847 -5.69,-2.207 -8.57,-3.179 -35.41,-22.34 -201.17,-39.551 -181.12,73.871 -0.77,1.449 2.27,8.109 2.27,8.109 -0.09,-0.75 159.89,0 159.89,0 -0.17,-0.75 24.77,88.379 24.77,88.379 -1.27,-0.348 -159.88,0 -159.88,0 -1.19,-0.348 51.65,184.23 51.65,184.23 -1.05,-1.097 -206.94,0 -206.94,0 -1.27,-1.097 -71.86,-256.328 -71.86,-256.328 -7.82,-27.39 -8.27,-52.39 -3.83,-77.351 18.2,-83.2 113.81,-123.809 179.66,-137.918 30.9,-11.871 180.37,-17.133 207.23,3.019 1.23,1.391 4.61,2.989 6.73,4.711 v 0 M 1128.33,629.32 c -71.86,0 -130.111,-35.531 -130.111,-79.359 -0.961,-44.262 58.251,-79.371 130.111,-79.371 71.64,-0.399 130.11,35.531 130.11,79.371 -0.76,43.039 -58.25,79.359 -130.11,79.359 v 0 M 954.059,334.18 H 857.223 C 816.738,246.762 662.992,229.391 578.27,232.91 c -155.122,3.492 -276.383,80.32 -273.942,169.899 1.926,89.582 130.11,159.871 285.121,156.023 113.356,-4.301 211.719,-45.031 253.883,-103.121 -1.437,-0.313 105.547,0 105.547,0 C 906.996,569.332 744.477,657.621 546.395,662.781 313.656,668.461 124.664,559.41 121,418.441 116.859,277.832 300.043,159.492 529.719,152.391 c 133.136,-6.25 381.875,25.089 424.34,181.789 v 0 m 605.541,14.14 h -145.58 c 43.41,30.129 102.1,31.321 145.58,0 v 0 m 134.71,-50.769 -3.81,-13.25 c -0.77,-0.551 -132,0 -132,0 -53.72,-30.141 -118.91,-24.699 -166.55,13.25 -1.1,-0.481 302.36,0 302.36,0 v 0 m 699.49,12.051 c 6.86,-68.973 88.69,-132.52 205.68,-152.133 20.97,-3.93 44.17,-5.617 65.74,-5.887 -0.39,-1 15.86,63.469 15.86,63.469 -1.45,-0.84 8.29,33.191 8.29,33.191 -0.86,-1.48 -24.51,8.25 -24.51,8.25 -28.14,8.028 -65.95,35.918 -61.45,66.75 -0.72,1.938 0.75,4.098 1.35,6.09 6.8,25.449 49.62,39.469 72.88,43.609 19.75,2.551 41.47,3.418 62.12,-0.839 -0.94,-1.051 -40.49,-151.192 -40.49,-151.192 -0.41,-0.781 -16.97,-63.32 -16.97,-63.32 -1.19,-1.09 193.68,0 193.68,0 -1.04,-1.09 35.29,125.129 36.22,128.422 4.17,45.09 -18.21,83.058 -47.07,108.668 -46.41,38.519 -132.54,64.09 -190.6,69.379 -123.63,10.562 -238.01,-31.758 -271.56,-103.11 -3,36.742 -27.8,69.641 -65.29,80.231 -8.73,0.902 -15.73,3.39 -24.43,3.39 -0.58,-1.019 -576.67,0 -576.67,0 -0.97,-1.019 -39.49,-137.351 -39.49,-137.351 -1.43,0.211 0.01,0.98 0.01,1.48 -1.44,86.031 -116.5,156.25 -260.22,156.25 C 1321.3,464.27 1225.31,420.621 1190.44,359 c -0.83,-1.27 25.25,84.309 25.25,84.309 -0.92,-1.227 -206.94,0 -206.94,0 -1.14,-1.227 -80.637,-269.219 -80.637,-269.219 -0.402,-1.309 206.937,0 206.937,0 -0.18,-1.309 41.72,139.289 41.72,139.289 -0.47,-2.988 -0.11,-3.117 -0.11,-4.68 -0.36,-87.09 116.5,-156.25 260.22,-156.25 113.77,-0.39 210.58,43.883 245.9,105 -0.44,-0.34 -24.33,-84.617 -24.33,-84.617 -1.26,-0.051 206.94,0 206.94,0 -1.05,-0.051 55.74,192.367 55.74,192.367 -0.57,-0.058 43.48,0 43.48,0 -1.14,-0.058 -55.74,-192.367 -55.74,-192.367 -0.14,-0.051 206.94,0 206.94,0 -1.41,-0.051 55.74,192.367 55.74,192.367 -0.92,-0.058 31.19,0 31.19,0 -1.04,-0.058 -55.75,-192.367 -55.75,-192.367 -0.03,-0.051 206.94,0 206.94,0 -1.31,-0.051 39.87,136.77 39.87,136.77 v 0"
       style="fill:#f9f9f9;fill-opacity:1;fill-rule:evenodd;stroke:none"
       id="path18" /></g></g></svg>
