<?xml version="1.0" encoding="UTF-8" standalone="no"?>
<!-- Uploaded to: SVG Repo, www.svgrepo.com, Generator: SVG Repo Mixer Tools -->

<svg
   width="1086.4053"
   height="767.95679"
   viewBox="0 0 1390.5988 982.98466"
   class="icon"
   version="1.1"
   id="svg1505"
   sodipodi:docname="water_consumption_x2.svg"
   inkscape:version="1.3 (0e150ed6c4, 2023-07-21)"
   xmlns:inkscape="http://www.inkscape.org/namespaces/inkscape"
   xmlns:sodipodi="http://sodipodi.sourceforge.net/DTD/sodipodi-0.dtd"
   xmlns="http://www.w3.org/2000/svg"
   xmlns:svg="http://www.w3.org/2000/svg">
  <defs
     id="defs1509" />
  <sodipodi:namedview
     id="namedview1507"
     pagecolor="#ffffff"
     bordercolor="#000000"
     borderopacity="0.25"
     inkscape:showpageshadow="2"
     inkscape:pageopacity="0.0"
     inkscape:pagecheckerboard="0"
     inkscape:deskcolor="#d1d1d1"
     showgrid="false"
     inkscape:zoom="0.44581046"
     inkscape:cx="555.16867"
     inkscape:cy="358.89692"
     inkscape:window-width="1920"
     inkscape:window-height="1128"
     inkscape:window-x="0"
     inkscape:window-y="0"
     inkscape:window-maximized="1"
     inkscape:current-layer="g947" />
  <g
     id="g947"
     transform="translate(363.8781,-79.15803)">
    <g
       id="g371"
       transform="translate(-23.04,7.68)"
       style="opacity:0.25">
      <path
         d="m -261.86288,559.16507 c -28.35789,60.6798 -47.56809,117.5989 -47.56809,160.9997 0,167.30143 135.58937,302.89083 302.89086,302.89083 167.3015,0 302.8908,-135.5894 302.8908,-302.89083 0,-13.0101 -1.9312,-27.3415 -5.5902,-42.5877 -332.5701,34.4564 -289.5758,-198.0987 -552.62337,-118.412 z"
         fill="#00B36A"
         id="path1499-7-3-3"
         style="fill:#3584e4;fill-opacity:1;stroke-width:1.01641" />
      <path
         d="m -292.45688,659.58657 c -38.82694,243.83733 125.01868,363.57063 292.01527,363.57063 94.3231,0 147.2782,-12.2986 202.8759,-79.89 C -63.35761,964.307 -233.3017,842.43917 -292.45688,659.58657 Z"
         fill="#009957"
         id="path1501-5-6-5"
         style="fill:#1c71d8;fill-opacity:1;stroke-width:1.01641" />
      <path
         d="m -6.54011,1054.4627 c -184.3772,0 -334.29799,-150.0224 -334.29799,-334.29793 0,-176.24589 288.05119,-541.13781 300.34989,-556.58729 5.8952,-7.41981 14.7379,-11.79038 24.1905,-11.89202 9.4527,-0.10164 18.3971,3.96401 24.4955,11.18053 2.0329,2.33775 49.8042,59.15519 108.5529,138.84189 10.2658,14.02649 7.3182,33.74489 -6.7083,44.01065 -14.0265,10.26576 -33.7449,7.31817 -44.0107,-6.70832 -32.3218,-43.909 -61.5945,-81.10968 -81.2113,-105.40193 -90.86726,119.53006 -262.74258,369.77069 -262.74258,486.55649 0,149.6158 121.76617,271.38203 271.38208,271.38203 149.6159,0 271.382,-121.76623 271.382,-271.38203 0,-30.1875 -13.4166,-89.3426 -77.6538,-199.42008 -8.7411,-15.04289 -3.6591,-34.25309 11.3838,-42.99423 15.0429,-8.74114 34.2531,-3.65909 42.9942,11.38382 58.0371,99.50679 86.1918,175.02619 86.1918,231.13209 0,184.27553 -150.0224,334.19633 -334.298,334.19633 z"
         fill="#1a1a1a"
         id="path1503-3-7-6"
         style="fill:#173242;fill-opacity:1;stroke-width:1.01641" />
    </g>
    <g
       id="g2"
       style="opacity:1">
      <path
         d="m 78.97522,486.6395 c -28.35789,60.6798 -47.56809,117.5989 -47.56809,160.9997 0,167.3014 135.58937,302.8908 302.89086,302.8908 167.3015,0 302.8908,-135.5894 302.8908,-302.8908 0,-13.0101 -1.9312,-27.3415 -5.5902,-42.5877 -332.5701,34.4564 -289.5758,-198.0987 -552.62337,-118.412 z"
         fill="#00B36A"
         id="path1499-7-3"
         style="fill:#3584e4;fill-opacity:1;stroke-width:1.01641" />
      <path
         d="M 48.38122,587.061 C 9.55428,830.8983 173.3999,950.6316 340.39649,950.6316 c 94.3231,0 147.2782,-12.2986 202.8759,-79.89 C 277.48049,891.7814 107.5364,769.9136 48.38122,587.061 Z"
         fill="#009957"
         id="path1501-5-6"
         style="fill:#1c71d8;fill-opacity:1;stroke-width:1.01641" />
      <path
         d="M 334.29799,981.9371 C 149.92079,981.9371 0,831.9147 0,647.6392 0,471.39331 288.05119,106.50139 300.34989,91.051911 c 5.8952,-7.41981 14.7379,-11.79038 24.1905,-11.89202 9.4527,-0.10164 18.3971,3.96401 24.4955,11.18053 2.0329,2.33775 49.8042,59.155189 108.5529,138.841889 10.2658,14.02649 7.3182,33.74489 -6.7083,44.01065 -14.0265,10.26576 -33.7449,7.31817 -44.0107,-6.70832 -32.3218,-43.909 -61.5945,-81.10968 -81.2113,-105.40193 C 234.79123,280.61277 62.91591,530.8534 62.91591,647.6392 c 0,149.6158 121.76617,271.382 271.38208,271.382 149.6159,0 271.382,-121.7662 271.382,-271.382 0,-30.1875 17.0738,76.61443 -47.1634,-33.46305 -8.7411,-15.04289 -3.6591,-34.25309 11.3838,-42.99423 15.0429,-8.74114 34.2531,-3.65909 42.9942,11.38382 58.0371,99.50679 55.7014,9.06916 55.7014,65.17506 0,184.2755 -150.0224,334.1963 -334.298,334.1963 z"
         fill="#1a1a1a"
         id="path1503-3-7"
         style="fill:#173242;fill-opacity:1;stroke-width:1.01641"
         sodipodi:nodetypes="sscsccsccssscscss"
         transparency="0.5" />
    </g>
    <g
       id="g1">
      <path
         d="m 437.09979,561.08147 c -28.35789,60.6798 -47.56809,117.59888 -47.56809,160.99967 0,167.30144 135.58937,302.89086 302.89086,302.89086 167.3015,0 302.8908,-135.58942 302.8908,-302.89086 0,-13.01006 -1.9312,-27.34148 -5.5902,-42.58766 C 657.15303,713.94985 700.14733,481.39477 437.09979,561.08147 Z"
         fill="#00B36A"
         id="path1499-7"
         style="fill:#3584e4;fill-opacity:1;stroke-width:1.01641" />
      <path
         d="m 406.50579,661.50298 c -38.82694,243.83726 125.01868,363.57062 292.01525,363.57062 94.32309,0 147.27819,-12.2986 202.87592,-79.89 C 635.6051,966.22333 465.66097,844.35552 406.50579,661.50298 Z"
         fill="#009957"
         id="path1501-5"
         style="fill:#1c71d8;fill-opacity:1;stroke-width:1.01641" />
      <path
         d="m 692.42256,1056.3791 c -184.3772,0 -334.29799,-150.02245 -334.29799,-334.29796 0,-176.24586 288.05119,-541.13778 300.34985,-556.58726 5.89521,-7.41981 14.73794,-11.79038 24.19055,-11.89202 9.45269,-0.10164 18.39705,3.96401 24.49553,11.18053 2.03282,2.33775 49.8042,59.15519 108.55283,138.84189 10.2658,14.02649 7.3182,33.74489 -6.7083,44.01065 -14.0265,10.26576 -33.74491,7.31817 -44.01066,-6.70832 -32.32184,-43.909 -61.59454,-81.10968 -81.21127,-105.40193 -90.8673,119.53006 -262.74262,369.77072 -262.74262,486.55646 0,149.61587 121.76617,271.38203 271.38208,271.38203 149.61587,0 271.382,-121.76616 271.382,-271.38203 0,-30.18744 -13.4166,-89.34262 -77.6538,-199.42005 -8.7411,-15.04289 -3.6591,-34.25309 11.3838,-42.99423 15.0429,-8.74114 34.2531,-3.65909 42.9942,11.38382 58.0371,99.50674 86.19184,175.02616 86.19184,231.1321 0,184.27552 -150.02244,334.19632 -334.29804,334.19632 z"
         fill="#1a1a1a"
         id="path1503-3"
         style="fill:#173242;fill-opacity:1;stroke-width:1.01641" />
    </g>
  </g>
</svg>
